{
	"asset":{
		"generator":"Khronos glTF Blender I/O v4.3.47",
		"version":"2.0"
	},
	"scene":0,
	"scenes":[
		{
			"name":"Scene",
			"nodes":[
				0,
				1,
				2,
				4,
				6,
				8,
				10
			]
		}
	],
	"nodes":[
		{
			"mesh":0,
			"name":"Plane",
			"scale":[
				39.394287109375,
				1.6391525268554688,
				24.0333251953125
			]
		},
		{
			"mesh":1,
			"name":"path44",
			"rotation":[
				0.7071068286895752,
				0,
				0,
				0.7071068286895752
			],
			"scale":[
				46.72654342651367,
				1,
				46.72661209106445
			],
			"translation":[
				0,
				3.5538828372955322,
				1.903192162513733
			]
		},
		{
			"mesh":2,
			"name":"path44.001",
			"rotation":[
				0.7071068286895752,
				0,
				0,
				0.7071068286895752
			],
			"scale":[
				46.72654342651367,
				1,
				46.72661209106445
			],
			"translation":[
				0,
				3.5538828372955322,
				1.903192162513733
			]
		},
		{
			"mesh":3,
			"name":"Circle.001",
			"scale":[
				0.916515052318573,
				1.1719205379486084,
				0.916515052318573
			]
		},
		{
			"children":[
				3
			],
			"mesh":4,
			"name":"Circle",
			"rotation":[
				0.6830127239227295,
				-0.1830127090215683,
				-0.1830127090215683,
				0.6830126643180847
			],
			"scale":[
				1.1563031673431396,
				1.0597691535949707,
				1.1563031673431396
			],
			"translation":[
				-10.245760917663574,
				6.595798015594482,
				0.1203145980834961
			]
		},
		{
			"mesh":5,
			"name":"Circle.002",
			"scale":[
				0.916515052318573,
				1.1719205379486084,
				0.916515052318573
			]
		},
		{
			"children":[
				5
			],
			"mesh":6,
			"name":"Circle.003",
			"rotation":[
				0.6830127239227295,
				-0.1830127090215683,
				-0.1830127090215683,
				0.6830126643180847
			],
			"scale":[
				1.1563031673431396,
				1.0597691535949707,
				1.1563031673431396
			],
			"translation":[
				-7.427823543548584,
				6.732515335083008,
				0.4030159115791321
			]
		},
		{
			"mesh":7,
			"name":"Circle.005",
			"scale":[
				0.916515052318573,
				1.1719205379486084,
				0.916515052318573
			]
		},
		{
			"children":[
				7
			],
			"mesh":8,
			"name":"Circle.004",
			"rotation":[
				0.6830127239227295,
				-0.1830127090215683,
				-0.1830127090215683,
				0.6830126643180847
			],
			"scale":[
				1.1563031673431396,
				1.0597691535949707,
				1.1563031673431396
			],
			"translation":[
				-4.65848445892334,
				6.9082932472229,
				0.6586453914642334
			]
		},
		{
			"mesh":9,
			"name":"Circle.006",
			"scale":[
				0.916515052318573,
				1.1719205379486084,
				0.916515052318573
			]
		},
		{
			"children":[
				9
			],
			"mesh":10,
			"name":"Circle.007",
			"rotation":[
				0.6830127239227295,
				-0.1830127090215683,
				-0.1830127090215683,
				0.6830126643180847
			],
			"scale":[
				1.1563031673431396,
				1.0597691535949707,
				1.1563031673431396
			],
			"translation":[
				-1.9208872318267822,
				7.266356468200684,
				0.8125786185264587
			]
		}
	],
	"materials":[
		{
			"doubleSided":true,
			"name":"SVGMat.007",
			"pbrMetallicRoughness":{
				"baseColorFactor":[
					0,
					0,
					0,
					1
				],
				"metallicFactor":0,
				"roughnessFactor":0.4000000059604645
			}
		},
		{
			"doubleSided":true,
			"name":"SVGMat.009",
			"pbrMetallicRoughness":{
				"baseColorFactor":[
					0,
					0,
					0,
					1
				],
				"metallicFactor":0,
				"roughnessFactor":0.4000000059604645
			}
		},
		{
			"doubleSided":true,
			"name":"Material.002",
			"pbrMetallicRoughness":{
				"baseColorFactor":[
					0,
					0,
					0,
					1
				],
				"metallicFactor":0,
				"roughnessFactor":0.5
			}
		},
		{
			"doubleSided":true,
			"name":"Material.003",
			"pbrMetallicRoughness":{
				"baseColorFactor":[
					0,
					0,
					0,
					1
				],
				"metallicFactor":0,
				"roughnessFactor":0.5
			}
		},
		{
			"doubleSided":true,
			"name":"Material.005",
			"pbrMetallicRoughness":{
				"baseColorFactor":[
					0,
					0,
					0,
					1
				],
				"metallicFactor":0,
				"roughnessFactor":0.5
			}
		},
		{
			"doubleSided":true,
			"name":"Material.004",
			"pbrMetallicRoughness":{
				"baseColorFactor":[
					0,
					0,
					0,
					1
				],
				"metallicFactor":0,
				"roughnessFactor":0.5
			}
		},
		{
			"doubleSided":true,
			"name":"Material.007",
			"pbrMetallicRoughness":{
				"baseColorFactor":[
					0,
					0,
					0,
					1
				],
				"metallicFactor":0,
				"roughnessFactor":0.5
			}
		},
		{
			"doubleSided":true,
			"name":"Material.006",
			"pbrMetallicRoughness":{
				"baseColorFactor":[
					0,
					0,
					0,
					1
				],
				"metallicFactor":0,
				"roughnessFactor":0.5
			}
		},
		{
			"doubleSided":true,
			"name":"Material.008",
			"pbrMetallicRoughness":{
				"baseColorFactor":[
					0,
					0,
					0,
					1
				],
				"metallicFactor":0,
				"roughnessFactor":0.5
			}
		},
		{
			"doubleSided":true,
			"name":"Material.009",
			"pbrMetallicRoughness":{
				"baseColorFactor":[
					0,
					0,
					0,
					1
				],
				"metallicFactor":0,
				"roughnessFactor":0.5
			}
		}
	],
	"meshes":[
		{
			"name":"Plane",
			"primitives":[
				{
					"attributes":{
						"POSITION":0,
						"NORMAL":1,
						"TEXCOORD_0":2
					},
					"indices":3
				}
			]
		},
		{
			"name":"path44",
			"primitives":[
				{
					"attributes":{
						"POSITION":4,
						"NORMAL":5
					},
					"indices":6,
					"material":0
				}
			]
		},
		{
			"name":"path44.002",
			"primitives":[
				{
					"attributes":{
						"POSITION":7,
						"NORMAL":8,
						"TEXCOORD_0":9
					},
					"indices":10,
					"material":1
				}
			]
		},
		{
			"name":"Circle.003",
			"primitives":[
				{
					"attributes":{
						"POSITION":11,
						"NORMAL":12,
						"TEXCOORD_0":13
					},
					"indices":14,
					"material":2
				}
			]
		},
		{
			"name":"Circle",
			"primitives":[
				{
					"attributes":{
						"POSITION":15,
						"NORMAL":16,
						"TEXCOORD_0":17
					},
					"indices":14,
					"material":3
				}
			]
		},
		{
			"name":"Circle.007",
			"primitives":[
				{
					"attributes":{
						"POSITION":18,
						"NORMAL":19,
						"TEXCOORD_0":20
					},
					"indices":14,
					"material":4
				}
			]
		},
		{
			"name":"Circle.008",
			"primitives":[
				{
					"attributes":{
						"POSITION":21,
						"NORMAL":22,
						"TEXCOORD_0":23
					},
					"indices":14,
					"material":5
				}
			]
		},
		{
			"name":"Circle.010",
			"primitives":[
				{
					"attributes":{
						"POSITION":24,
						"NORMAL":25,
						"TEXCOORD_0":26
					},
					"indices":14,
					"material":6
				}
			]
		},
		{
			"name":"Circle.009",
			"primitives":[
				{
					"attributes":{
						"POSITION":27,
						"NORMAL":28,
						"TEXCOORD_0":29
					},
					"indices":14,
					"material":7
				}
			]
		},
		{
			"name":"Circle.011",
			"primitives":[
				{
					"attributes":{
						"POSITION":30,
						"NORMAL":31,
						"TEXCOORD_0":32
					},
					"indices":14,
					"material":8
				}
			]
		},
		{
			"name":"Circle.012",
			"primitives":[
				{
					"attributes":{
						"POSITION":33,
						"NORMAL":34,
						"TEXCOORD_0":35
					},
					"indices":14,
					"material":9
				}
			]
		}
	],
	"accessors":[
		{
			"bufferView":0,
			"componentType":5126,
			"count":10,
			"max":[
				1,
				33,
				1
			],
			"min":[
				-1,
				0,
				-1
			],
			"type":"VEC3"
		},
		{
			"bufferView":1,
			"componentType":5126,
			"count":10,
			"type":"VEC3"
		},
		{
			"bufferView":2,
			"componentType":5126,
			"count":10,
			"type":"VEC2"
		},
		{
			"bufferView":3,
			"componentType":5123,
			"count":18,
			"type":"SCALAR"
		},
		{
			"bufferView":4,
			"componentType":5126,
			"count":1577759,
			"max":[
				0.16114923357963562,
				0.382000207901001,
				0.06802032887935638
			],
			"min":[
				-0.16613620519638062,
				-0.382000207901001,
				-0.05927891284227371
			],
			"type":"VEC3"
		},
		{
			"bufferView":5,
			"componentType":5126,
			"count":1577759,
			"type":"VEC3"
		},
		{
			"bufferView":6,
			"componentType":5125,
			"count":6678612,
			"type":"SCALAR"
		},
		{
			"bufferView":7,
			"componentType":5126,
			"count":1066,
			"max":[
				0.1581016331911087,
				0.75,
				0.06602022051811218
			],
			"min":[
				-0.16348852217197418,
				-0.75,
				-0.056257255375385284
			],
			"type":"VEC3"
		},
		{
			"bufferView":8,
			"componentType":5126,
			"count":1066,
			"type":"VEC3"
		},
		{
			"bufferView":9,
			"componentType":5126,
			"count":1066,
			"type":"VEC2"
		},
		{
			"bufferView":10,
			"componentType":5123,
			"count":2916,
			"type":"SCALAR"
		},
		{
			"bufferView":11,
			"componentType":5126,
			"count":7300,
			"max":[
				0.9257156252861023,
				0.18425552546977997,
				0.7901427149772644
			],
			"min":[
				-0.9257156252861023,
				-0.18425582349300385,
				-0.9725446701049805
			],
			"type":"VEC3"
		},
		{
			"bufferView":12,
			"componentType":5126,
			"count":7300,
			"type":"VEC3"
		},
		{
			"bufferView":13,
			"componentType":5126,
			"count":7300,
			"type":"VEC2"
		},
		{
			"bufferView":14,
			"componentType":5123,
			"count":11028,
			"type":"SCALAR"
		},
		{
			"bufferView":15,
			"componentType":5126,
			"count":7300,
			"max":[
				0.9257156252861023,
				0.18425552546977997,
				0.7901427149772644
			],
			"min":[
				-0.9257156252861023,
				-0.18425582349300385,
				-0.9725446701049805
			],
			"type":"VEC3"
		},
		{
			"bufferView":16,
			"componentType":5126,
			"count":7300,
			"type":"VEC3"
		},
		{
			"bufferView":17,
			"componentType":5126,
			"count":7300,
			"type":"VEC2"
		},
		{
			"bufferView":18,
			"componentType":5126,
			"count":7300,
			"max":[
				0.9257156252861023,
				0.18425552546977997,
				0.7901427149772644
			],
			"min":[
				-0.9257156252861023,
				-0.18425582349300385,
				-0.9725446701049805
			],
			"type":"VEC3"
		},
		{
			"bufferView":19,
			"componentType":5126,
			"count":7300,
			"type":"VEC3"
		},
		{
			"bufferView":20,
			"componentType":5126,
			"count":7300,
			"type":"VEC2"
		},
		{
			"bufferView":21,
			"componentType":5126,
			"count":7300,
			"max":[
				0.9257156252861023,
				0.18425552546977997,
				0.7901427149772644
			],
			"min":[
				-0.9257156252861023,
				-0.18425582349300385,
				-0.9725446701049805
			],
			"type":"VEC3"
		},
		{
			"bufferView":22,
			"componentType":5126,
			"count":7300,
			"type":"VEC3"
		},
		{
			"bufferView":23,
			"componentType":5126,
			"count":7300,
			"type":"VEC2"
		},
		{
			"bufferView":24,
			"componentType":5126,
			"count":7300,
			"max":[
				0.9257156252861023,
				0.18425552546977997,
				0.7901427149772644
			],
			"min":[
				-0.9257156252861023,
				-0.18425582349300385,
				-0.9725446701049805
			],
			"type":"VEC3"
		},
		{
			"bufferView":25,
			"componentType":5126,
			"count":7300,
			"type":"VEC3"
		},
		{
			"bufferView":26,
			"componentType":5126,
			"count":7300,
			"type":"VEC2"
		},
		{
			"bufferView":27,
			"componentType":5126,
			"count":7300,
			"max":[
				0.9257156252861023,
				0.18425552546977997,
				0.7901427149772644
			],
			"min":[
				-0.9257156252861023,
				-0.18425582349300385,
				-0.9725446701049805
			],
			"type":"VEC3"
		},
		{
			"bufferView":28,
			"componentType":5126,
			"count":7300,
			"type":"VEC3"
		},
		{
			"bufferView":29,
			"componentType":5126,
			"count":7300,
			"type":"VEC2"
		},
		{
			"bufferView":30,
			"componentType":5126,
			"count":7300,
			"max":[
				0.9257156252861023,
				0.18425552546977997,
				0.7901427149772644
			],
			"min":[
				-0.9257156252861023,
				-0.18425582349300385,
				-0.9725446701049805
			],
			"type":"VEC3"
		},
		{
			"bufferView":31,
			"componentType":5126,
			"count":7300,
			"type":"VEC3"
		},
		{
			"bufferView":32,
			"componentType":5126,
			"count":7300,
			"type":"VEC2"
		},
		{
			"bufferView":33,
			"componentType":5126,
			"count":7300,
			"max":[
				0.9257156252861023,
				0.18425552546977997,
				0.7901427149772644
			],
			"min":[
				-0.9257156252861023,
				-0.18425582349300385,
				-0.9725446701049805
			],
			"type":"VEC3"
		},
		{
			"bufferView":34,
			"componentType":5126,
			"count":7300,
			"type":"VEC3"
		},
		{
			"bufferView":35,
			"componentType":5126,
			"count":7300,
			"type":"VEC2"
		}
	],
	"bufferViews":[
		{
			"buffer":0,
			"byteLength":120,
			"byteOffset":0,
			"target":34962
		},
		{
			"buffer":0,
			"byteLength":120,
			"byteOffset":120,
			"target":34962
		},
		{
			"buffer":0,
			"byteLength":80,
			"byteOffset":240,
			"target":34962
		},
		{
			"buffer":0,
			"byteLength":36,
			"byteOffset":320,
			"target":34963
		},
		{
			"buffer":0,
			"byteLength":18933108,
			"byteOffset":356,
			"target":34962
		},
		{
			"buffer":0,
			"byteLength":18933108,
			"byteOffset":18933464,
			"target":34962
		},
		{
			"buffer":0,
			"byteLength":26714448,
			"byteOffset":37866572,
			"target":34963
		},
		{
			"buffer":0,
			"byteLength":12792,
			"byteOffset":64581020,
			"target":34962
		},
		{
			"buffer":0,
			"byteLength":12792,
			"byteOffset":64593812,
			"target":34962
		},
		{
			"buffer":0,
			"byteLength":8528,
			"byteOffset":64606604,
			"target":34962
		},
		{
			"buffer":0,
			"byteLength":5832,
			"byteOffset":64615132,
			"target":34963
		},
		{
			"buffer":0,
			"byteLength":87600,
			"byteOffset":64620964,
			"target":34962
		},
		{
			"buffer":0,
			"byteLength":87600,
			"byteOffset":64708564,
			"target":34962
		},
		{
			"buffer":0,
			"byteLength":58400,
			"byteOffset":64796164,
			"target":34962
		},
		{
			"buffer":0,
			"byteLength":22056,
			"byteOffset":64854564,
			"target":34963
		},
		{
			"buffer":0,
			"byteLength":87600,
			"byteOffset":64876620,
			"target":34962
		},
		{
			"buffer":0,
			"byteLength":87600,
			"byteOffset":64964220,
			"target":34962
		},
		{
			"buffer":0,
			"byteLength":58400,
			"byteOffset":65051820,
			"target":34962
		},
		{
			"buffer":0,
			"byteLength":87600,
			"byteOffset":65110220,
			"target":34962
		},
		{
			"buffer":0,
			"byteLength":87600,
			"byteOffset":65197820,
			"target":34962
		},
		{
			"buffer":0,
			"byteLength":58400,
			"byteOffset":65285420,
			"target":34962
		},
		{
			"buffer":0,
			"byteLength":87600,
			"byteOffset":65343820,
			"target":34962
		},
		{
			"buffer":0,
			"byteLength":87600,
			"byteOffset":65431420,
			"target":34962
		},
		{
			"buffer":0,
			"byteLength":58400,
			"byteOffset":65519020,
			"target":34962
		},
		{
			"buffer":0,
			"byteLength":87600,
			"byteOffset":65577420,
			"target":34962
		},
		{
			"buffer":0,
			"byteLength":87600,
			"byteOffset":65665020,
			"target":34962
		},
		{
			"buffer":0,
			"byteLength":58400,
			"byteOffset":65752620,
			"target":34962
		},
		{
			"buffer":0,
			"byteLength":87600,
			"byteOffset":65811020,
			"target":34962
		},
		{
			"buffer":0,
			"byteLength":87600,
			"byteOffset":65898620,
			"target":34962
		},
		{
			"buffer":0,
			"byteLength":58400,
			"byteOffset":65986220,
			"target":34962
		},
		{
			"buffer":0,
			"byteLength":87600,
			"byteOffset":66044620,
			"target":34962
		},
		{
			"buffer":0,
			"byteLength":87600,
			"byteOffset":66132220,
			"target":34962
		},
		{
			"buffer":0,
			"byteLength":58400,
			"byteOffset":66219820,
			"target":34962
		},
		{
			"buffer":0,
			"byteLength":87600,
			"byteOffset":66278220,
			"target":34962
		},
		{
			"buffer":0,
			"byteLength":87600,
			"byteOffset":66365820,
			"target":34962
		},
		{
			"buffer":0,
			"byteLength":58400,
			"byteOffset":66453420,
			"target":34962
		}
	],
	"buffers":[
		{
			"byteLength":66511820,
			"uri":"magic.bin"
		}
	]
}
