{
	"asset":{
		"generator":"Khronos glTF Blender I/O v4.3.47",
		"version":"2.0"
	},
	"scene":0,
	"scenes":[
		{
			"name":"Scene",
			"nodes":[
				0,
				1
			]
		}
	],
	"nodes":[
		{
			"mesh":0,
			"name":"path44",
			"rotation":[
				0.7071068286895752,
				0,
				0,
				0.7071068286895752
			],
			"scale":[
				46.72654342651367,
				1,
				46.72661209106445
			],
			"translation":[
				0,
				3.5538828372955322,
				1.903192162513733
			]
		},
		{
			"mesh":1,
			"name":"path44.001",
			"rotation":[
				0.7071068286895752,
				0,
				0,
				0.7071068286895752
			],
			"scale":[
				46.72654342651367,
				1,
				46.72661209106445
			],
			"translation":[
				0,
				3.5538828372955322,
				1.903192162513733
			]
		}
	],
	"materials":[
		{
			"doubleSided":true,
			"name":"Material",
			"pbrMetallicRoughness":{
				"baseColorFactor":[
					0.038204122334718704,
					0.03820440545678139,
					0.038204390555620193,
					1
				],
				"roughnessFactor":0.5
			}
		},
		{
			"doubleSided":true,
			"name":"SVGMat.009",
			"pbrMetallicRoughness":{
				"baseColorFactor":[
					0,
					0,
					0,
					1
				],
				"metallicFactor":0,
				"roughnessFactor":0.4000000059604645
			}
		}
	],
	"meshes":[
		{
			"name":"path44",
			"primitives":[
				{
					"attributes":{
						"POSITION":0,
						"NORMAL":1
					},
					"indices":2,
					"material":0
				}
			]
		},
		{
			"name":"path44.002",
			"primitives":[
				{
					"attributes":{
						"POSITION":3,
						"NORMAL":4,
						"TEXCOORD_0":5
					},
					"indices":6,
					"material":1
				}
			]
		}
	],
	"accessors":[
		{
			"bufferView":0,
			"componentType":5126,
			"count":1577759,
			"max":[
				0.16114923357963562,
				0.382000207901001,
				0.06802032887935638
			],
			"min":[
				-0.16613620519638062,
				-0.382000207901001,
				-0.05927891284227371
			],
			"type":"VEC3"
		},
		{
			"bufferView":1,
			"componentType":5126,
			"count":1577759,
			"type":"VEC3"
		},
		{
			"bufferView":2,
			"componentType":5125,
			"count":6678612,
			"type":"SCALAR"
		},
		{
			"bufferView":3,
			"componentType":5126,
			"count":1066,
			"max":[
				0.1581016331911087,
				0.75,
				0.06602022051811218
			],
			"min":[
				-0.16348852217197418,
				-0.75,
				-0.056257255375385284
			],
			"type":"VEC3"
		},
		{
			"bufferView":4,
			"componentType":5126,
			"count":1066,
			"type":"VEC3"
		},
		{
			"bufferView":5,
			"componentType":5126,
			"count":1066,
			"type":"VEC2"
		},
		{
			"bufferView":6,
			"componentType":5123,
			"count":2916,
			"type":"SCALAR"
		}
	],
	"bufferViews":[
		{
			"buffer":0,
			"byteLength":18933108,
			"byteOffset":0,
			"target":34962
		},
		{
			"buffer":0,
			"byteLength":18933108,
			"byteOffset":18933108,
			"target":34962
		},
		{
			"buffer":0,
			"byteLength":26714448,
			"byteOffset":37866216,
			"target":34963
		},
		{
			"buffer":0,
			"byteLength":12792,
			"byteOffset":64580664,
			"target":34962
		},
		{
			"buffer":0,
			"byteLength":12792,
			"byteOffset":64593456,
			"target":34962
		},
		{
			"buffer":0,
			"byteLength":8528,
			"byteOffset":64606248,
			"target":34962
		},
		{
			"buffer":0,
			"byteLength":5832,
			"byteOffset":64614776,
			"target":34963
		}
	],
	"buffers":[
		{
			"byteLength":64620608,
			"uri":"magic.bin"
		}
	]
}
